<svg width="24" height="25" viewBox="0 0 24 25" fill="none" xmlns="http://www.w3.org/2000/svg">
<path d="M5.20898 13.5002H16.379L11.499 18.3802C11.109 18.7702 11.109 19.4102 11.499 19.8002C11.889 20.1902 12.519 20.1902 12.909 19.8002L19.499 13.2102C19.889 12.8202 19.889 12.1902 19.499 11.8002L12.919 5.2002C12.7322 5.01295 12.4785 4.90771 12.214 4.90771C11.9495 4.90771 11.6958 5.01295 11.509 5.2002C11.119 5.5902 11.119 6.2202 11.509 6.6102L16.379 11.5002H5.20898C4.65898 11.5002 4.20898 11.9502 4.20898 12.5002C4.20898 13.0502 4.65898 13.5002 5.20898 13.5002Z" fill="#7676B2"/>
</svg>
